<svg width="24" height="24" viewBox="0 0 24 24" fill="none" xmlns="http://www.w3.org/2000/svg">
<path d="M3.25 6C3.25 5.80109 3.32902 5.61032 3.46967 5.46967C3.61032 5.32902 3.80109 5.25 4 5.25H20.25C20.4489 5.25 20.6397 5.32902 20.7803 5.46967C20.921 5.61032 21 5.80109 21 6C21 6.19891 20.921 6.38968 20.7803 6.53033C20.6397 6.67098 20.4489 6.75 20.25 6.75H4C3.80109 6.75 3.61032 6.67098 3.46967 6.53033C3.32902 6.38968 3.25 6.19891 3.25 6ZM20.25 11.25H4C3.80109 11.25 3.61032 11.329 3.46967 11.4697C3.32902 11.6103 3.25 11.8011 3.25 12C3.25 12.1989 3.32902 12.3897 3.46967 12.5303C3.61032 12.671 3.80109 12.75 4 12.75H20.25C20.4489 12.75 20.6397 12.671 20.7803 12.5303C20.921 12.3897 21 12.1989 21 12C21 11.8011 20.921 11.6103 20.7803 11.4697C20.6397 11.329 20.4489 11.25 20.25 11.25ZM20.25 17.25H4C3.80109 17.25 3.61032 17.329 3.46967 17.4697C3.32902 17.6103 3.25 17.8011 3.25 18C3.25 18.1989 3.32902 18.3897 3.46967 18.5303C3.61032 18.671 3.80109 18.75 4 18.75H20.25C20.4489 18.75 20.6397 18.671 20.7803 18.5303C20.921 18.3897 21 18.1989 21 18C21 17.8011 20.921 17.6103 20.7803 17.4697C20.6397 17.329 20.4489 17.25 20.25 17.25Z" fill="#332825"/>
</svg>
